<mxfile host="app.diagrams.net" modified="2024-05-01T06:13:34.076Z" agent="Mozilla/5.0 (Macintosh; Intel Mac OS X 10_15_7) AppleWebKit/537.36 (KHTML, like Gecko) Chrome/124.0.0.0 Safari/537.36" etag="375P84694zE9JvIlSUaj" version="24.3.1" type="device">
  <diagram id="R2lEEEUBdFMjLlhIrx00" name="Page-1">
    <mxGraphModel dx="1151" dy="555" grid="1" gridSize="10" guides="1" tooltips="1" connect="1" arrows="1" fold="1" page="1" pageScale="1" pageWidth="850" pageHeight="1100" math="0" shadow="0" extFonts="Permanent Marker^https://fonts.googleapis.com/css?family=Permanent+Marker">
      <root>
        <mxCell id="0" />
        <mxCell id="1" parent="0" />
        <mxCell id="iwgBK0ehm7zD6jrNGfgP-34" value="Participation1453" style="rounded=0;whiteSpace=wrap;html=1;" vertex="1" parent="1">
          <mxGeometry x="161.64" y="335" width="120" height="60" as="geometry" />
        </mxCell>
        <mxCell id="iwgBK0ehm7zD6jrNGfgP-37" value="" style="endArrow=none;html=1;rounded=0;" edge="1" parent="1">
          <mxGeometry width="50" height="50" relative="1" as="geometry">
            <mxPoint x="201.64" y="335" as="sourcePoint" />
            <mxPoint x="201.64" y="285" as="targetPoint" />
          </mxGeometry>
        </mxCell>
        <mxCell id="iwgBK0ehm7zD6jrNGfgP-38" value="" style="ellipse;whiteSpace=wrap;html=1;aspect=fixed;" vertex="1" parent="1">
          <mxGeometry x="191.64" y="265" width="20" height="20" as="geometry" />
        </mxCell>
        <mxCell id="iwgBK0ehm7zD6jrNGfgP-39" value="" style="endArrow=none;html=1;rounded=0;exitX=0.5;exitY=0;exitDx=0;exitDy=0;" edge="1" parent="1" source="iwgBK0ehm7zD6jrNGfgP-34">
          <mxGeometry width="50" height="50" relative="1" as="geometry">
            <mxPoint x="221.64" y="375" as="sourcePoint" />
            <mxPoint x="221.64" y="305" as="targetPoint" />
          </mxGeometry>
        </mxCell>
        <mxCell id="iwgBK0ehm7zD6jrNGfgP-40" value="" style="ellipse;whiteSpace=wrap;html=1;aspect=fixed;" vertex="1" parent="1">
          <mxGeometry x="211.64" y="285" width="20" height="20" as="geometry" />
        </mxCell>
        <mxCell id="iwgBK0ehm7zD6jrNGfgP-44" value="ScoreValue" style="text;html=1;align=center;verticalAlign=middle;resizable=0;points=[];autosize=1;strokeColor=none;fillColor=none;" vertex="1" parent="1">
          <mxGeometry x="206.64" y="260" width="80" height="30" as="geometry" />
        </mxCell>
        <mxCell id="iwgBK0ehm7zD6jrNGfgP-45" value="VoteStatus" style="text;html=1;align=center;verticalAlign=middle;resizable=0;points=[];autosize=1;strokeColor=none;fillColor=none;" vertex="1" parent="1">
          <mxGeometry x="226.64" y="280" width="80" height="30" as="geometry" />
        </mxCell>
        <mxCell id="iwgBK0ehm7zD6jrNGfgP-47" value="Golfer1453" style="rounded=0;whiteSpace=wrap;html=1;" vertex="1" parent="1">
          <mxGeometry x="420" y="335" width="120" height="60" as="geometry" />
        </mxCell>
        <mxCell id="iwgBK0ehm7zD6jrNGfgP-48" value="" style="endArrow=none;html=1;rounded=0;" edge="1" parent="1">
          <mxGeometry width="50" height="50" relative="1" as="geometry">
            <mxPoint x="440" y="335" as="sourcePoint" />
            <mxPoint x="440" y="265" as="targetPoint" />
          </mxGeometry>
        </mxCell>
        <mxCell id="iwgBK0ehm7zD6jrNGfgP-49" value="" style="ellipse;whiteSpace=wrap;html=1;aspect=fixed;" vertex="1" parent="1">
          <mxGeometry x="430" y="245" width="20" height="20" as="geometry" />
        </mxCell>
        <mxCell id="iwgBK0ehm7zD6jrNGfgP-50" value="" style="endArrow=none;html=1;rounded=0;" edge="1" parent="1">
          <mxGeometry width="50" height="50" relative="1" as="geometry">
            <mxPoint x="460" y="335" as="sourcePoint" />
            <mxPoint x="460" y="285" as="targetPoint" />
          </mxGeometry>
        </mxCell>
        <mxCell id="iwgBK0ehm7zD6jrNGfgP-51" value="" style="ellipse;whiteSpace=wrap;html=1;aspect=fixed;" vertex="1" parent="1">
          <mxGeometry x="450" y="265" width="20" height="20" as="geometry" />
        </mxCell>
        <mxCell id="iwgBK0ehm7zD6jrNGfgP-52" value="" style="endArrow=none;html=1;rounded=0;exitX=0.5;exitY=0;exitDx=0;exitDy=0;" edge="1" parent="1" source="iwgBK0ehm7zD6jrNGfgP-47">
          <mxGeometry width="50" height="50" relative="1" as="geometry">
            <mxPoint x="480" y="375" as="sourcePoint" />
            <mxPoint x="480" y="305" as="targetPoint" />
          </mxGeometry>
        </mxCell>
        <mxCell id="iwgBK0ehm7zD6jrNGfgP-53" value="" style="ellipse;whiteSpace=wrap;html=1;aspect=fixed;" vertex="1" parent="1">
          <mxGeometry x="470" y="285" width="20" height="20" as="geometry" />
        </mxCell>
        <mxCell id="iwgBK0ehm7zD6jrNGfgP-54" value="" style="endArrow=none;html=1;rounded=0;" edge="1" parent="1">
          <mxGeometry width="50" height="50" relative="1" as="geometry">
            <mxPoint x="500" y="335" as="sourcePoint" />
            <mxPoint x="500" y="325" as="targetPoint" />
          </mxGeometry>
        </mxCell>
        <mxCell id="iwgBK0ehm7zD6jrNGfgP-55" value="" style="ellipse;whiteSpace=wrap;html=1;aspect=fixed;" vertex="1" parent="1">
          <mxGeometry x="490" y="305" width="20" height="20" as="geometry" />
        </mxCell>
        <mxCell id="iwgBK0ehm7zD6jrNGfgP-56" value="&lt;u&gt;GolferId&lt;/u&gt;" style="text;html=1;align=center;verticalAlign=middle;resizable=0;points=[];autosize=1;strokeColor=none;fillColor=none;" vertex="1" parent="1">
          <mxGeometry x="440" y="240" width="70" height="30" as="geometry" />
        </mxCell>
        <mxCell id="iwgBK0ehm7zD6jrNGfgP-57" value="Name" style="text;html=1;align=center;verticalAlign=middle;resizable=0;points=[];autosize=1;strokeColor=none;fillColor=none;" vertex="1" parent="1">
          <mxGeometry x="460" y="260" width="60" height="30" as="geometry" />
        </mxCell>
        <mxCell id="iwgBK0ehm7zD6jrNGfgP-58" value="MobileNumber" style="text;html=1;align=center;verticalAlign=middle;resizable=0;points=[];autosize=1;strokeColor=none;fillColor=none;" vertex="1" parent="1">
          <mxGeometry x="485" y="280" width="100" height="30" as="geometry" />
        </mxCell>
        <mxCell id="iwgBK0ehm7zD6jrNGfgP-59" value="Handicap" style="text;html=1;align=center;verticalAlign=middle;resizable=0;points=[];autosize=1;strokeColor=none;fillColor=none;" vertex="1" parent="1">
          <mxGeometry x="500" y="300" width="70" height="30" as="geometry" />
        </mxCell>
        <mxCell id="iwgBK0ehm7zD6jrNGfgP-60" value="" style="swimlane;startSize=0;" vertex="1" parent="1">
          <mxGeometry x="156.64" y="330" width="130" height="70" as="geometry" />
        </mxCell>
        <mxCell id="iwgBK0ehm7zD6jrNGfgP-63" value="" style="edgeStyle=entityRelationEdgeStyle;fontSize=12;html=1;endArrow=ERzeroToMany;startArrow=ERmandOne;rounded=0;exitX=0;exitY=1;exitDx=0;exitDy=0;" edge="1" parent="1" target="iwgBK0ehm7zD6jrNGfgP-34">
          <mxGeometry width="100" height="100" relative="1" as="geometry">
            <mxPoint x="120" y="190" as="sourcePoint" />
            <mxPoint x="110" y="370" as="targetPoint" />
            <Array as="points">
              <mxPoint x="80" y="310" />
            </Array>
          </mxGeometry>
        </mxCell>
        <mxCell id="iwgBK0ehm7zD6jrNGfgP-96" value="&lt;u&gt;contains&lt;/u&gt;" style="edgeLabel;html=1;align=center;verticalAlign=middle;resizable=0;points=[];" vertex="1" connectable="0" parent="iwgBK0ehm7zD6jrNGfgP-63">
          <mxGeometry x="-0.0442" y="1" relative="1" as="geometry">
            <mxPoint as="offset" />
          </mxGeometry>
        </mxCell>
        <mxCell id="iwgBK0ehm7zD6jrNGfgP-67" value="" style="edgeStyle=entityRelationEdgeStyle;fontSize=12;html=1;endArrow=ERzeroToMany;startArrow=ERmandOne;rounded=0;exitX=0;exitY=0.5;exitDx=0;exitDy=0;entryX=1;entryY=0.5;entryDx=0;entryDy=0;" edge="1" parent="1" source="iwgBK0ehm7zD6jrNGfgP-47" target="iwgBK0ehm7zD6jrNGfgP-60">
          <mxGeometry width="100" height="100" relative="1" as="geometry">
            <mxPoint x="390" y="370" as="sourcePoint" />
            <mxPoint x="490" y="270" as="targetPoint" />
          </mxGeometry>
        </mxCell>
        <mxCell id="iwgBK0ehm7zD6jrNGfgP-97" value="&lt;u&gt;participates&lt;/u&gt;" style="edgeLabel;html=1;align=center;verticalAlign=middle;resizable=0;points=[];" vertex="1" connectable="0" parent="iwgBK0ehm7zD6jrNGfgP-67">
          <mxGeometry x="0.1422" y="-2" relative="1" as="geometry">
            <mxPoint as="offset" />
          </mxGeometry>
        </mxCell>
        <mxCell id="iwgBK0ehm7zD6jrNGfgP-71" value="Competition1453" style="rounded=0;whiteSpace=wrap;html=1;" vertex="1" parent="1">
          <mxGeometry x="90" y="125" width="120" height="60" as="geometry" />
        </mxCell>
        <mxCell id="iwgBK0ehm7zD6jrNGfgP-72" value="" style="endArrow=none;html=1;rounded=0;" edge="1" parent="1">
          <mxGeometry width="50" height="50" relative="1" as="geometry">
            <mxPoint x="110" y="125" as="sourcePoint" />
            <mxPoint x="110" y="55" as="targetPoint" />
          </mxGeometry>
        </mxCell>
        <mxCell id="iwgBK0ehm7zD6jrNGfgP-73" value="" style="ellipse;whiteSpace=wrap;html=1;aspect=fixed;" vertex="1" parent="1">
          <mxGeometry x="100" y="35" width="20" height="20" as="geometry" />
        </mxCell>
        <mxCell id="iwgBK0ehm7zD6jrNGfgP-74" value="" style="endArrow=none;html=1;rounded=0;" edge="1" parent="1">
          <mxGeometry width="50" height="50" relative="1" as="geometry">
            <mxPoint x="130" y="125" as="sourcePoint" />
            <mxPoint x="130" y="75" as="targetPoint" />
          </mxGeometry>
        </mxCell>
        <mxCell id="iwgBK0ehm7zD6jrNGfgP-75" value="" style="ellipse;whiteSpace=wrap;html=1;aspect=fixed;" vertex="1" parent="1">
          <mxGeometry x="120" y="55" width="20" height="20" as="geometry" />
        </mxCell>
        <mxCell id="iwgBK0ehm7zD6jrNGfgP-76" value="" style="endArrow=none;html=1;rounded=0;exitX=0.5;exitY=0;exitDx=0;exitDy=0;" edge="1" parent="1" source="iwgBK0ehm7zD6jrNGfgP-71">
          <mxGeometry width="50" height="50" relative="1" as="geometry">
            <mxPoint x="150" y="165" as="sourcePoint" />
            <mxPoint x="150" y="95" as="targetPoint" />
          </mxGeometry>
        </mxCell>
        <mxCell id="iwgBK0ehm7zD6jrNGfgP-77" value="" style="ellipse;whiteSpace=wrap;html=1;aspect=fixed;" vertex="1" parent="1">
          <mxGeometry x="140" y="75" width="20" height="20" as="geometry" />
        </mxCell>
        <mxCell id="iwgBK0ehm7zD6jrNGfgP-78" value="" style="endArrow=none;html=1;rounded=0;" edge="1" parent="1">
          <mxGeometry width="50" height="50" relative="1" as="geometry">
            <mxPoint x="170" y="125" as="sourcePoint" />
            <mxPoint x="170" y="115" as="targetPoint" />
          </mxGeometry>
        </mxCell>
        <mxCell id="iwgBK0ehm7zD6jrNGfgP-79" value="" style="ellipse;whiteSpace=wrap;html=1;aspect=fixed;" vertex="1" parent="1">
          <mxGeometry x="160" y="95" width="20" height="20" as="geometry" />
        </mxCell>
        <mxCell id="iwgBK0ehm7zD6jrNGfgP-80" value="&lt;u&gt;CompetitionCode&lt;/u&gt;" style="text;html=1;align=center;verticalAlign=middle;resizable=0;points=[];autosize=1;strokeColor=none;fillColor=none;" vertex="1" parent="1">
          <mxGeometry x="105" y="30" width="120" height="30" as="geometry" />
        </mxCell>
        <mxCell id="iwgBK0ehm7zD6jrNGfgP-81" value="Name" style="text;html=1;align=center;verticalAlign=middle;resizable=0;points=[];autosize=1;strokeColor=none;fillColor=none;" vertex="1" parent="1">
          <mxGeometry x="130" y="50" width="60" height="30" as="geometry" />
        </mxCell>
        <mxCell id="iwgBK0ehm7zD6jrNGfgP-82" value="Date" style="text;html=1;align=center;verticalAlign=middle;resizable=0;points=[];autosize=1;strokeColor=none;fillColor=none;" vertex="1" parent="1">
          <mxGeometry x="150" y="70" width="50" height="30" as="geometry" />
        </mxCell>
        <mxCell id="iwgBK0ehm7zD6jrNGfgP-83" value="Venue" style="text;html=1;align=center;verticalAlign=middle;resizable=0;points=[];autosize=1;strokeColor=none;fillColor=none;" vertex="1" parent="1">
          <mxGeometry x="170" y="90" width="60" height="30" as="geometry" />
        </mxCell>
        <mxCell id="iwgBK0ehm7zD6jrNGfgP-84" value="Championship1453" style="rounded=0;whiteSpace=wrap;html=1;" vertex="1" parent="1">
          <mxGeometry x="380" y="125" width="120" height="60" as="geometry" />
        </mxCell>
        <mxCell id="iwgBK0ehm7zD6jrNGfgP-85" value="" style="endArrow=none;html=1;rounded=0;" edge="1" parent="1">
          <mxGeometry width="50" height="50" relative="1" as="geometry">
            <mxPoint x="400" y="125" as="sourcePoint" />
            <mxPoint x="400" y="55" as="targetPoint" />
          </mxGeometry>
        </mxCell>
        <mxCell id="iwgBK0ehm7zD6jrNGfgP-86" value="" style="ellipse;whiteSpace=wrap;html=1;aspect=fixed;" vertex="1" parent="1">
          <mxGeometry x="390" y="35" width="20" height="20" as="geometry" />
        </mxCell>
        <mxCell id="iwgBK0ehm7zD6jrNGfgP-87" value="" style="endArrow=none;html=1;rounded=0;" edge="1" parent="1">
          <mxGeometry width="50" height="50" relative="1" as="geometry">
            <mxPoint x="420" y="125" as="sourcePoint" />
            <mxPoint x="420" y="75" as="targetPoint" />
          </mxGeometry>
        </mxCell>
        <mxCell id="iwgBK0ehm7zD6jrNGfgP-88" value="" style="ellipse;whiteSpace=wrap;html=1;aspect=fixed;" vertex="1" parent="1">
          <mxGeometry x="410" y="55" width="20" height="20" as="geometry" />
        </mxCell>
        <mxCell id="iwgBK0ehm7zD6jrNGfgP-89" value="" style="endArrow=none;html=1;rounded=0;exitX=0.5;exitY=0;exitDx=0;exitDy=0;" edge="1" parent="1" source="iwgBK0ehm7zD6jrNGfgP-84">
          <mxGeometry width="50" height="50" relative="1" as="geometry">
            <mxPoint x="440" y="165" as="sourcePoint" />
            <mxPoint x="440" y="95" as="targetPoint" />
          </mxGeometry>
        </mxCell>
        <mxCell id="iwgBK0ehm7zD6jrNGfgP-90" value="" style="ellipse;whiteSpace=wrap;html=1;aspect=fixed;" vertex="1" parent="1">
          <mxGeometry x="430" y="75" width="20" height="20" as="geometry" />
        </mxCell>
        <mxCell id="iwgBK0ehm7zD6jrNGfgP-91" value="&lt;u&gt;ChampionshipId&lt;/u&gt;" style="text;html=1;align=center;verticalAlign=middle;resizable=0;points=[];autosize=1;strokeColor=none;fillColor=none;" vertex="1" parent="1">
          <mxGeometry x="400" y="30" width="110" height="30" as="geometry" />
        </mxCell>
        <mxCell id="iwgBK0ehm7zD6jrNGfgP-92" value="Year" style="text;html=1;align=center;verticalAlign=middle;resizable=0;points=[];autosize=1;strokeColor=none;fillColor=none;" vertex="1" parent="1">
          <mxGeometry x="420" y="50" width="50" height="30" as="geometry" />
        </mxCell>
        <mxCell id="iwgBK0ehm7zD6jrNGfgP-93" value="Name" style="text;html=1;align=center;verticalAlign=middle;resizable=0;points=[];autosize=1;strokeColor=none;fillColor=none;" vertex="1" parent="1">
          <mxGeometry x="440" y="70" width="60" height="30" as="geometry" />
        </mxCell>
        <mxCell id="iwgBK0ehm7zD6jrNGfgP-94" value="" style="edgeStyle=entityRelationEdgeStyle;fontSize=12;html=1;endArrow=ERzeroToMany;startArrow=ERmandOne;rounded=0;entryX=1;entryY=0.5;entryDx=0;entryDy=0;exitX=0;exitY=0.5;exitDx=0;exitDy=0;" edge="1" parent="1" source="iwgBK0ehm7zD6jrNGfgP-84" target="iwgBK0ehm7zD6jrNGfgP-71">
          <mxGeometry width="100" height="100" relative="1" as="geometry">
            <mxPoint x="280" y="300" as="sourcePoint" />
            <mxPoint x="410" y="160" as="targetPoint" />
          </mxGeometry>
        </mxCell>
        <mxCell id="iwgBK0ehm7zD6jrNGfgP-95" value="hosts" style="edgeLabel;html=1;align=center;verticalAlign=middle;resizable=0;points=[];" vertex="1" connectable="0" parent="iwgBK0ehm7zD6jrNGfgP-94">
          <mxGeometry x="-0.0278" relative="1" as="geometry">
            <mxPoint as="offset" />
          </mxGeometry>
        </mxCell>
      </root>
    </mxGraphModel>
  </diagram>
</mxfile>
